<svg width="21" height="22" viewBox="0 0 21 22" fill="none" xmlns="http://www.w3.org/2000/svg">
<path d="M7.5 6.5L5.5 8.5C5.03273 8.95793 4.66087 9.50395 4.40593 10.1065C4.15098 10.709 4.01802 11.3561 4.01471 12.0104C4.01141 12.6646 4.13783 13.313 4.38668 13.9181C4.63552 14.5232 5.00185 15.0729 5.46447 15.5355C5.9271 15.9982 6.47684 16.3645 7.08192 16.6133C7.687 16.8622 8.33541 16.9886 8.98965 16.9853C9.64389 16.982 10.291 16.849 10.8935 16.5941C11.4961 16.3391 12.0421 15.9673 12.5 15.5L14.5 13.5C14.9673 13.0421 15.3391 12.4961 15.5941 11.8935C15.849 11.291 15.982 10.6439 15.9853 9.98965C15.9886 9.33541 15.8622 8.687 15.6133 8.08192C15.3645 7.47684 14.9982 6.9271 14.5355 6.46447C14.0729 6.00185 13.5232 5.63552 12.9181 5.38668C12.313 5.13783 11.6646 5.01141 11.0104 5.01471C10.3561 5.01802 9.70902 5.15098 9.10648 5.40593C8.50395 5.66087 7.95793 6.03273 7.5 6.5ZM12 5.5V15.5ZM8 6.5V16.5Z" fill="white"/>
<path d="M12 5.5V15.5M8 6.5V16.5M7.5 6.5L5.5 8.5C5.03273 8.95793 4.66087 9.50395 4.40593 10.1065C4.15098 10.709 4.01802 11.3561 4.01471 12.0104C4.01141 12.6646 4.13783 13.313 4.38668 13.9181C4.63552 14.5232 5.00185 15.0729 5.46447 15.5355C5.9271 15.9982 6.47684 16.3645 7.08192 16.6133C7.687 16.8622 8.33541 16.9886 8.98965 16.9853C9.64389 16.982 10.291 16.849 10.8935 16.5941C11.4961 16.3391 12.0421 15.9673 12.5 15.5L14.5 13.5C14.9673 13.0421 15.3391 12.4961 15.5941 11.8935C15.849 11.291 15.982 10.6439 15.9853 9.98965C15.9886 9.33541 15.8622 8.687 15.6133 8.08192C15.3645 7.47684 14.9982 6.9271 14.5355 6.46447C14.0729 6.00185 13.5232 5.63552 12.9181 5.38668C12.313 5.13783 11.6646 5.01141 11.0104 5.01471C10.3561 5.01802 9.70902 5.15098 9.10648 5.40593C8.50395 5.66087 7.95793 6.03273 7.5 6.5Z" stroke="#6E6E6E" stroke-width="2" stroke-linecap="round" stroke-linejoin="round"/>
<path d="M14 6L15 1L16.37 1.68C16.7828 1.88767 17.2379 1.99718 17.7 2H19V3.3C19 3.76 19.1 4.22 19.32 4.63L20 6L15 7M6 16L5 21L3.63 20.32C3.21723 20.1123 2.76206 20.0028 2.3 20H1V18.7C0.997182 18.2379 0.887669 17.7828 0.68 17.37L0 16L5 15" fill="white"/>
<path d="M14 6L15 1L16.37 1.68C16.7828 1.88767 17.2379 1.99718 17.7 2H19V3.3C19 3.76 19.1 4.22 19.32 4.63L20 6L15 7M6 16L5 21L3.63 20.32C3.21723 20.1123 2.76206 20.0028 2.3 20H1V18.7C0.997182 18.2379 0.887669 17.7828 0.68 17.37L0 16L5 15" stroke="#6E6E6E" stroke-width="2" stroke-linecap="round" stroke-linejoin="round"/>
</svg>
