<svg width="22" height="23" viewBox="0 0 22 23" fill="none" xmlns="http://www.w3.org/2000/svg">
<path fill-rule="evenodd" clip-rule="evenodd" d="M2.60597 2.44699L2.83597 2.90899L0.685969 5.91899C0.548521 6.11163 0.483843 6.34677 0.503434 6.5826C0.523026 6.81844 0.625618 7.03968 0.792969 7.20699L2.29297 8.70699C2.44139 8.85528 2.63269 8.95313 2.8398 8.98669C3.0469 9.02025 3.25931 8.98782 3.44697 8.89399L4.70097 8.26799L5.39297 9.18999L3.32297 15.816C3.11096 15.6621 2.91043 15.493 2.72297 15.31C2.53906 15.1234 2.28925 15.0164 2.02728 15.0121C1.7653 15.0077 1.51209 15.1064 1.3221 15.2868C1.13211 15.4672 1.02052 15.715 1.01133 15.9769C1.00214 16.2387 1.09609 16.4937 1.27297 16.687L1.90897 17.252C2.30597 17.567 2.88897 17.977 3.65697 18.384C5.19997 19.2 7.48297 20 10.5 20C13.517 20 15.801 19.2 17.343 18.384C17.959 18.0608 18.5441 17.6819 19.091 17.252C19.245 17.129 19.746 16.67 19.727 16.687C19.8961 16.5091 19.9939 16.2751 20.0017 16.0297C20.0095 15.7843 19.9267 15.5446 19.7692 15.3563C19.6116 15.168 19.3903 15.0443 19.1474 15.0086C18.9045 14.973 18.657 15.0279 18.452 15.163L17.422 10.012C17.945 10.501 18.51 11.257 19.106 12.447C19.1621 12.5686 19.2421 12.6776 19.3413 12.7677C19.4404 12.8578 19.5566 12.927 19.6829 12.9713C19.8093 13.0156 19.9433 13.0341 20.077 13.0256C20.2106 13.0172 20.3412 12.982 20.461 12.9221C20.5808 12.8622 20.6873 12.7788 20.7743 12.677C20.8612 12.5751 20.9269 12.4569 20.9672 12.3292C21.0076 12.2015 21.022 12.067 21.0094 11.9336C20.9968 11.8003 20.9575 11.6709 20.894 11.553C19.838 9.43999 18.708 8.23599 17.447 7.60599C16.487 7.12599 15.421 6.99999 14.36 6.99999H10.758C10.658 6.69722 10.5449 6.39894 10.419 6.10599C10.01 5.15199 9.32197 3.90799 8.20697 2.79299C7.04797 1.63399 5.85397 1.16999 4.91397 1.01299C4.38097 0.924994 3.78897 0.896994 3.25697 1.02999C3.11182 1.06643 2.9767 1.13498 2.86157 1.2306C2.74644 1.32621 2.65424 1.44644 2.59176 1.58243C2.52929 1.71842 2.49813 1.86669 2.50059 2.01633C2.50305 2.16596 2.53906 2.31313 2.60597 2.44699ZM16.674 16.47L15.341 9.80399C15.207 9.13599 14.569 9.00399 13.983 8.99999H9.99997C9.51697 8.99999 9.11797 8.65199 9.01697 8.18699C8.90872 7.74436 8.76286 7.31179 8.58097 6.89399C8.23997 6.09799 7.67797 5.09199 6.79297 4.20699C6.13997 3.55399 5.50897 3.23599 4.99697 3.08199C4.98228 3.26214 4.91903 3.43493 4.81397 3.58199L2.80597 6.39199L3.19697 6.78299L4.55297 6.10599C4.76236 6.00127 5.00186 5.97334 5.22973 6.02707C5.45761 6.08079 5.65941 6.21277 5.79997 6.39999L7.29997 8.39999C7.39493 8.52678 7.45841 8.67431 7.48518 8.83044C7.51196 8.98656 7.50126 9.14681 7.45397 9.29799L5.08997 16.863C5.54097 17.073 6.05697 17.277 6.63797 17.452L8.06397 13.649C8.13541 13.4584 8.26329 13.2942 8.43054 13.1782C8.59779 13.0622 8.79645 13.0001 8.99997 13H13C13.2035 13.0001 13.4021 13.0622 13.5694 13.1782C13.7366 13.2942 13.8645 13.4584 13.936 13.649L15.248 17.146C15.798 16.931 16.274 16.697 16.674 16.47ZM13.325 17.716L12.307 15H9.69297L8.61397 17.877C9.23915 17.9604 9.86925 18.0015 10.5 18C11.549 18 12.49 17.89 13.325 17.716Z" fill="#6E6E6E"/>
</svg>
