<svg width="20" height="16" viewBox="0 0 20 16" fill="none" xmlns="http://www.w3.org/2000/svg">
<path d="M8.00146 9.99943L13.5875 4.41443C13.3549 4.1819 13.1832 3.8956 13.0877 3.58089C12.9922 3.26618 12.9757 2.93277 13.0398 2.61018C13.1039 2.2876 13.2466 1.9858 13.4552 1.73153C13.6638 1.47725 13.9319 1.27834 14.2357 1.15241C14.5395 1.02648 14.8697 0.977425 15.197 1.00958C15.5243 1.04174 15.8387 1.15413 16.1122 1.33678C16.3857 1.51943 16.6099 1.76672 16.7651 2.05673C16.9202 2.34674 17.0014 2.67054 17.0015 2.99943C17.3304 2.99919 17.6544 3.08011 17.9446 3.23501C18.2348 3.38992 18.4824 3.61402 18.6653 3.88746C18.8482 4.1609 18.9608 4.47524 18.9932 4.80262C19.0256 5.13 18.9767 5.46031 18.8509 5.76427C18.7251 6.06824 18.5262 6.33648 18.2719 6.54523C18.0177 6.75397 17.7158 6.89677 17.3932 6.96097C17.0706 7.02517 16.737 7.00879 16.4222 6.91328C16.1074 6.81777 15.8211 6.64608 15.5885 6.41343L12.0015 9.99943" stroke="#6E6E6E" stroke-width="2" stroke-linecap="round" stroke-linejoin="round"/>
<path d="M10.0014 7.99943L6.41543 4.41443C6.64802 4.1819 6.81969 3.8956 6.91521 3.58089C7.01073 3.26618 7.02717 2.93277 6.96307 2.61018C6.89897 2.2876 6.7563 1.9858 6.5477 1.73153C6.33911 1.47725 6.07103 1.27834 5.7672 1.15241C5.46337 1.02648 5.13318 0.977425 4.80586 1.00958C4.47855 1.04174 4.16421 1.15413 3.89071 1.33678C3.6172 1.51943 3.39295 1.76672 3.23784 2.05673C3.08272 2.34674 3.00152 2.67054 3.00143 2.99943C2.67245 2.99919 2.3485 3.08011 2.05827 3.23501C1.76805 3.38992 1.52052 3.61402 1.33761 3.88746C1.15471 4.1609 1.04208 4.47524 1.00971 4.80262C0.977335 5.13 1.02622 5.46031 1.15203 5.76427C1.27783 6.06824 1.47668 6.33648 1.73095 6.54523C1.98521 6.75397 2.28704 6.89677 2.60969 6.96097C2.93234 7.02517 3.26585 7.00879 3.58065 6.91328C3.89546 6.81777 4.18184 6.64608 4.41443 6.41343L8.00143 9.99943M1.00143 14.9994H19.0014C18.8264 13.3284 18.9554 11.6544 17.0014 9.99943H3.00143C1.66809 10.9994 1.00143 12.6661 1.00143 14.9994Z" stroke="#6E6E6E" stroke-width="2" stroke-linecap="round" stroke-linejoin="round"/>
</svg>
