<svg width="24" height="24" viewBox="0 0 24 24" fill="none" xmlns="http://www.w3.org/2000/svg">
<path d="M12 10.875C12.2225 10.875 12.44 10.941 12.625 11.0646C12.81 11.1882 12.9542 11.3639 13.0394 11.5695C13.1245 11.775 13.1468 12.0012 13.1034 12.2195C13.06 12.4377 12.9528 12.6382 12.7955 12.7955C12.6382 12.9528 12.4377 13.06 12.2195 13.1034C12.0012 13.1468 11.775 13.1245 11.5695 13.0394C11.3639 12.9542 11.1882 12.81 11.0646 12.625C10.941 12.44 10.875 12.2225 10.875 12C10.875 11.7016 10.9935 11.4155 11.2045 11.2045C11.4155 10.9935 11.7016 10.875 12 10.875ZM6.75 12C6.75 11.7775 6.68402 11.56 6.5604 11.375C6.43679 11.19 6.26109 11.0458 6.05552 10.9606C5.84995 10.8755 5.62375 10.8532 5.40552 10.8966C5.1873 10.94 4.98684 11.0472 4.82951 11.2045C4.67217 11.3618 4.56503 11.5623 4.52162 11.7805C4.47821 11.9988 4.50049 12.225 4.58564 12.4305C4.67078 12.6361 4.81498 12.8118 4.99998 12.9354C5.18499 13.059 5.4025 13.125 5.625 13.125C5.92337 13.125 6.20952 13.0065 6.4205 12.7955C6.63147 12.5845 6.75 12.2984 6.75 12ZM17.25 12C17.25 12.2225 17.316 12.44 17.4396 12.625C17.5632 12.81 17.7389 12.9542 17.9445 13.0394C18.15 13.1245 18.3762 13.1468 18.5945 13.1034C18.8127 13.06 19.0132 12.9528 19.1705 12.7955C19.3278 12.6382 19.435 12.4377 19.4784 12.2195C19.5218 12.0012 19.4995 11.775 19.4144 11.5695C19.3292 11.3639 19.185 11.1882 19 11.0646C18.815 10.941 18.5975 10.875 18.375 10.875C18.0766 10.875 17.7905 10.9935 17.5795 11.2045C17.3685 11.4155 17.25 11.7016 17.25 12Z" fill="black"/>
</svg>
