<svg width="500" height="500" viewBox="0 0 500 500" fill="none" xmlns="http://www.w3.org/2000/svg">
<path d="M482.143 178.572C482.143 169.1 478.38 160.015 471.682 153.318C464.984 146.62 455.9 142.857 446.428 142.857H375L321.428 71.4287H178.571L125 142.857H53.5712C44.0992 142.857 35.0151 146.62 28.3174 153.318C21.6197 160.015 17.8569 169.1 17.8569 178.572V392.857C17.8569 402.329 21.6197 411.413 28.3174 418.111C35.0151 424.809 44.0992 428.572 53.5712 428.572H446.428C455.9 428.572 464.984 424.809 471.682 418.111C478.38 411.413 482.143 402.329 482.143 392.857V178.572Z" stroke="black" stroke-width="35.7143" stroke-linecap="round" stroke-linejoin="round"/>
<path d="M250 348.214C271.312 348.214 291.751 339.748 306.821 324.678C321.891 309.608 330.357 289.169 330.357 267.857C330.357 246.545 321.891 226.106 306.821 211.036C291.751 195.966 271.312 187.5 250 187.5C228.688 187.5 208.249 195.966 193.179 211.036C178.109 226.106 169.643 246.545 169.643 267.857C169.643 289.169 178.109 309.608 193.179 324.678C208.249 339.748 228.688 348.214 250 348.214Z" stroke="black" stroke-width="35.7143" stroke-linecap="round" stroke-linejoin="round"/>
</svg>
