<svg width="22" height="19" viewBox="0 0 22 19" fill="none" xmlns="http://www.w3.org/2000/svg">
<path d="M18.875 4.5C18.3558 4.5 17.8483 4.65395 17.4166 4.94239C16.985 5.23083 16.6485 5.6408 16.4498 6.12046C16.2511 6.60011 16.1992 7.12791 16.3004 7.63711C16.4017 8.14631 16.6517 8.61404 17.0188 8.98116C17.386 9.34827 17.8537 9.59828 18.3629 9.69956C18.8721 9.80085 19.3999 9.74886 19.8795 9.55018C20.3592 9.3515 20.7692 9.01505 21.0576 8.58337C21.346 8.15169 21.5 7.64418 21.5 7.125C21.5 6.42881 21.2234 5.76113 20.7312 5.26885C20.2389 4.77656 19.5712 4.5 18.875 4.5ZM18.875 8.25C18.6525 8.25 18.435 8.18402 18.25 8.0604C18.065 7.93679 17.9208 7.76109 17.8356 7.55552C17.7505 7.34995 17.7282 7.12375 17.7716 6.90552C17.815 6.6873 17.9222 6.48684 18.0795 6.32951C18.2368 6.17217 18.4373 6.06503 18.6555 6.02162C18.8738 5.97821 19.1 6.00049 19.3055 6.08564C19.5111 6.17078 19.6868 6.31498 19.8104 6.49998C19.934 6.68499 20 6.9025 20 7.125C20 7.42337 19.8815 7.70952 19.6705 7.9205C19.4595 8.13147 19.1734 8.25 18.875 8.25ZM5.75 7.125C5.75 6.60582 5.59605 6.09831 5.30761 5.66663C5.01917 5.23495 4.6092 4.8985 4.12955 4.69982C3.64989 4.50114 3.12209 4.44915 2.61289 4.55044C2.10369 4.65173 1.63596 4.90173 1.26885 5.26885C0.901733 5.63596 0.651726 6.10369 0.55044 6.61289C0.449154 7.12209 0.501137 7.64989 0.699817 8.12954C0.898497 8.6092 1.23495 9.01917 1.66663 9.30761C2.09831 9.59605 2.60583 9.75 3.125 9.75C3.82119 9.75 4.48887 9.47344 4.98116 8.98116C5.47344 8.48887 5.75 7.82119 5.75 7.125ZM3.125 8.25C2.9025 8.25 2.68499 8.18402 2.49998 8.0604C2.31498 7.93679 2.17079 7.76109 2.08564 7.55552C2.00049 7.34995 1.97821 7.12375 2.02162 6.90552C2.06503 6.6873 2.17217 6.48684 2.32951 6.32951C2.48684 6.17217 2.6873 6.06503 2.90552 6.02162C3.12375 5.97821 3.34995 6.00049 3.55552 6.08564C3.76109 6.17078 3.93679 6.31498 4.0604 6.49998C4.18402 6.68499 4.25 6.9025 4.25 7.125C4.25 7.42337 4.13147 7.70952 3.9205 7.9205C3.70952 8.13147 3.42337 8.25 3.125 8.25ZM7.625 5.25C8.14418 5.25 8.65169 5.09605 9.08337 4.80761C9.51505 4.51917 9.85151 4.1092 10.0502 3.62954C10.2489 3.14989 10.3008 2.62209 10.1996 2.11289C10.0983 1.60369 9.84827 1.13596 9.48116 0.768846C9.11404 0.401733 8.64631 0.151726 8.13711 0.0504398C7.62791 -0.0508464 7.10011 0.00113737 6.62046 0.199817C6.1408 0.398497 5.73083 0.73495 5.44239 1.16663C5.15395 1.59831 5 2.10583 5 2.625C5 3.32119 5.27656 3.98887 5.76885 4.48116C6.26113 4.97344 6.92881 5.25 7.625 5.25ZM7.625 1.5C7.84751 1.5 8.06501 1.56598 8.25002 1.6896C8.43502 1.81321 8.57922 1.98892 8.66437 2.19448C8.74951 2.40005 8.77179 2.62625 8.72838 2.84448C8.68498 3.06271 8.57783 3.26316 8.4205 3.4205C8.26316 3.57783 8.06271 3.68498 7.84448 3.72838C7.62625 3.77179 7.40005 3.74951 7.19448 3.66437C6.98892 3.57922 6.81321 3.43502 6.6896 3.25002C6.56598 3.06501 6.5 2.84751 6.5 2.625C6.5 2.32663 6.61853 2.04048 6.82951 1.82951C7.04048 1.61853 7.32663 1.5 7.625 1.5ZM14.375 5.25C14.8942 5.25 15.4017 5.09605 15.8334 4.80761C16.2651 4.51917 16.6015 4.1092 16.8002 3.62954C16.9989 3.14989 17.0508 2.62209 16.9496 2.11289C16.8483 1.60369 16.5983 1.13596 16.2312 0.768846C15.864 0.401733 15.3963 0.151726 14.8871 0.0504398C14.3779 -0.0508464 13.8501 0.00113737 13.3705 0.199817C12.8908 0.398497 12.4808 0.73495 12.1924 1.16663C11.904 1.59831 11.75 2.10583 11.75 2.625C11.75 3.32119 12.0266 3.98887 12.5188 4.48116C13.0111 4.97344 13.6788 5.25 14.375 5.25ZM14.375 1.5C14.5975 1.5 14.815 1.56598 15 1.6896C15.185 1.81321 15.3292 1.98892 15.4144 2.19448C15.4995 2.40005 15.5218 2.62625 15.4784 2.84448C15.435 3.06271 15.3278 3.26316 15.1705 3.4205C15.0132 3.57783 14.8127 3.68498 14.5945 3.72838C14.3762 3.77179 14.1501 3.74951 13.9445 3.66437C13.7389 3.57922 13.5632 3.43502 13.4396 3.25002C13.316 3.06501 13.25 2.84751 13.25 2.625C13.25 2.32663 13.3685 2.04048 13.5795 1.82951C13.7905 1.61853 14.0766 1.5 14.375 1.5ZM16.5425 10.9556C16.1615 10.7455 15.8258 10.4622 15.5544 10.1222C15.283 9.78209 15.0813 9.39184 14.9609 8.97375C14.7116 8.11617 14.1906 7.36269 13.4763 6.82654C12.7621 6.29039 11.8931 6.00053 11 6.00053C10.1069 6.00053 9.23792 6.29039 8.52366 6.82654C7.8094 7.36269 7.28844 8.11617 7.03906 8.97375C6.79818 9.81503 6.23345 10.5264 5.46875 10.9519C4.73518 11.3488 4.15487 11.979 3.81962 12.7427C3.48437 13.5065 3.41331 14.3602 3.61768 15.1688C3.82205 15.9775 4.29018 16.6949 4.94804 17.2077C5.60589 17.7205 6.41592 17.9993 7.25 18C7.74983 18.0014 8.24477 17.9016 8.705 17.7066C10.1723 17.1016 11.8193 17.1016 13.2866 17.7066C14.1753 18.0931 15.1791 18.1205 16.0876 17.7832C16.9961 17.4458 17.7387 16.7698 18.1598 15.8969C18.5808 15.0241 18.6476 14.0221 18.3461 13.1011C18.0446 12.18 17.3982 11.4115 16.5425 10.9566V10.9556ZM14.75 16.5C14.4455 16.5003 14.1441 16.4387 13.8641 16.3191C12.0271 15.5603 9.96442 15.5603 8.1275 16.3191C7.59369 16.5489 6.99164 16.5633 6.44747 16.3592C5.9033 16.155 5.45923 15.7483 5.20827 15.224C4.95731 14.6998 4.91893 14.0988 5.10118 13.5469C5.28342 12.9951 5.67215 12.5351 6.18594 12.2634C6.73835 11.9584 7.22521 11.5474 7.61868 11.054C8.01216 10.5607 8.30452 9.99456 8.47906 9.38813C8.63756 8.84212 8.96904 8.36233 9.42366 8.02091C9.87828 7.67949 10.4315 7.4949 11 7.4949C11.5685 7.4949 12.1217 7.67949 12.5763 8.02091C13.031 8.36233 13.3624 8.84212 13.5209 9.38813C13.6961 9.99569 13.9893 10.5627 14.3839 11.0568C14.7786 11.5508 15.2668 11.9621 15.8206 12.2672C16.263 12.5044 16.6133 12.8828 16.8158 13.342C17.0184 13.8013 17.0616 14.3151 16.9385 14.8017C16.8154 15.2884 16.5331 15.7199 16.1366 16.0276C15.74 16.3353 15.2519 16.5016 14.75 16.5Z" fill="#6E6E6E"/>
</svg>
