<svg width="32" height="26" viewBox="0 0 32 26" fill="none" xmlns="http://www.w3.org/2000/svg">
<g clip-path="url(#clip0_166_2806)">
<path d="M18.85 0.5C19.3747 0.500136 19.8861 0.665357 20.3116 0.97226C20.7372 1.27916 21.0554 1.71219 21.2213 2.21L21.9 4.25H26C26.3315 4.25 26.6495 4.3817 26.8839 4.61612C27.1183 4.85054 27.25 5.16848 27.25 5.5C27.25 5.83152 27.1183 6.14946 26.8839 6.38388C26.6495 6.6183 26.3315 6.75 26 6.75L25.9963 6.83875L24.9125 22.0175C24.8449 22.9633 24.4215 23.8483 23.7275 24.4944C23.0336 25.1406 22.1207 25.4999 21.1725 25.5H10.8275C9.87932 25.4999 8.96638 25.1406 8.27246 24.4944C7.57853 23.8483 7.15514 22.9633 7.0875 22.0175L6.00375 6.8375L6 6.75C5.66848 6.75 5.35054 6.6183 5.11612 6.38388C4.8817 6.14946 4.75 5.83152 4.75 5.5C4.75 5.16848 4.8817 4.85054 5.11612 4.61612C5.35054 4.3817 5.66848 4.25 6 4.25H10.1L10.7787 2.21C10.9446 1.71199 11.263 1.27881 11.6889 0.971894C12.1147 0.664973 12.6263 0.499874 13.1512 0.5H18.85ZM23.4963 6.75H8.50375L9.58125 21.8387C9.60369 22.154 9.74472 22.4491 9.97595 22.6645C10.2072 22.88 10.5114 22.9998 10.8275 23H21.1725C21.4886 22.9998 21.7928 22.88 22.0241 22.6645C22.2553 22.4491 22.3963 22.154 22.4188 21.8387L23.4963 6.75ZM13.5 10.5C13.8062 10.5 14.1017 10.6124 14.3305 10.8159C14.5593 11.0193 14.7054 11.2997 14.7413 11.6038L14.75 11.75V18C14.7496 18.3186 14.6277 18.625 14.4089 18.8567C14.1902 19.0884 13.8913 19.2278 13.5733 19.2465C13.2552 19.2651 12.942 19.1617 12.6977 18.9572C12.4534 18.7527 12.2964 18.4626 12.2587 18.1463L12.25 18V11.75C12.25 11.4185 12.3817 11.1005 12.6161 10.8661C12.8505 10.6317 13.1685 10.5 13.5 10.5ZM18.5 10.5C18.8315 10.5 19.1495 10.6317 19.3839 10.8661C19.6183 11.1005 19.75 11.4185 19.75 11.75V18C19.75 18.3315 19.6183 18.6495 19.3839 18.8839C19.1495 19.1183 18.8315 19.25 18.5 19.25C18.1685 19.25 17.8505 19.1183 17.6161 18.8839C17.3817 18.6495 17.25 18.3315 17.25 18V11.75C17.25 11.4185 17.3817 11.1005 17.6161 10.8661C17.8505 10.6317 18.1685 10.5 18.5 10.5ZM18.85 3H13.15L12.7338 4.25H19.2662L18.85 3Z" fill="black"/>
</g>
<defs>
<clipPath id="clip0_166_2806">
<rect width="30.5" height="25" fill="white" transform="translate(0.75 0.5)"/>
</clipPath>
</defs>
</svg>
