<svg width="15" height="15" viewBox="0 0 15 15" fill="none" xmlns="http://www.w3.org/2000/svg">
<path d="M13.4662 4.96217C13.2904 4.78642 13.052 4.68769 12.8034 4.68769C12.5548 4.68769 12.3164 4.78642 12.1406 4.96217L7.49999 9.6028L2.85936 4.96217C2.68255 4.7914 2.44573 4.69691 2.19992 4.69904C1.95411 4.70118 1.71898 4.79977 1.54515 4.97359C1.37133 5.14741 1.27274 5.38255 1.2706 5.62836C1.26847 5.87417 1.36296 6.11098 1.53374 6.2878L6.83717 11.5912C7.01298 11.767 7.25139 11.8657 7.49999 11.8657C7.74858 11.8657 7.98699 11.767 8.1628 11.5912L13.4662 6.2878C13.642 6.11199 13.7407 5.87358 13.7407 5.62499C13.7407 5.37639 13.642 5.13798 13.4662 4.96217Z" fill="#6E6E6E"/>
</svg>
