<svg width="400" height="400" viewBox="0 0 400 400" fill="none" xmlns="http://www.w3.org/2000/svg">
<path d="M199.6 143.272C202.764 143.272 205.386 144.222 208.321 146.857L265.893 202.372C268.407 204.879 269.914 207.557 269.914 211.243C269.914 218.1 264.893 222.957 257.864 222.957C254.507 222.957 251 221.622 248.65 218.943L223.214 192L211.828 180.114L213 205.057V334.072C213 341.107 206.807 346.964 199.607 346.964C192.414 346.964 186.386 341.107 186.386 334.072V205.05L187.386 180.107L176.007 191.993L150.721 218.943C149.582 220.21 148.188 221.222 146.631 221.915C145.075 222.608 143.389 222.966 141.686 222.964C134.657 222.964 129.471 218.107 129.471 211.243C129.471 207.557 130.807 204.886 133.314 202.372L189.9 147.8C193.25 144.443 196.257 143.272 199.614 143.272M233.45 26.9358C294.214 26.9358 343.471 76.1929 343.471 136.95C343.471 140.407 343.314 143.824 343 147.2C373.736 154.443 396.614 182.057 396.614 215C396.614 253.472 365.428 284.657 326.957 284.657H246.6V257.872H326.943C332.573 257.873 338.149 256.766 343.351 254.612C348.553 252.458 353.28 249.3 357.262 245.319C361.243 241.338 364.401 236.611 366.555 231.409C368.708 226.206 369.816 220.631 369.814 215C369.812 205.349 366.556 195.98 360.572 188.408C354.588 180.836 346.225 175.504 336.836 173.272L314.164 167.929L316.307 144.736C316.545 142.164 316.664 139.569 316.664 136.95C316.664 90.9858 279.407 53.7215 233.436 53.7215C219.554 53.7112 205.891 57.1766 193.693 63.8017C181.494 70.4268 171.149 80.0007 163.6 91.6501L152.707 108.393L133.557 102.736C128.359 101.196 122.878 100.861 117.532 101.756C112.185 102.652 107.112 104.754 102.7 107.904C98.2874 111.054 94.6509 115.168 92.0665 119.933C89.4822 124.699 88.0181 129.991 87.7855 135.407L87.757 137.5L88.4212 160L67.0141 164.936C56.6547 167.346 47.4159 173.191 40.8015 181.52C34.187 189.849 30.5864 200.171 30.5855 210.807C30.5855 223.291 35.5448 235.264 44.3724 244.092C53.2 252.919 65.1728 257.879 77.6569 257.879H153.743V284.664H77.6569C36.8712 284.664 3.7998 251.593 3.7998 210.807C3.7998 175.75 28.2284 146.393 60.9927 138.836L60.9641 136.95C60.9615 127.232 63.2266 117.647 67.5794 108.958C71.9322 100.27 78.2525 92.7164 86.0376 86.8997C93.8226 81.0829 102.858 77.163 112.424 75.4519C121.99 73.7407 131.824 74.2855 141.143 77.0429C160.764 46.8787 194.771 26.9358 233.436 26.9358" fill="#6E6E6E"/>
</svg>
