<svg width="70" height="70" viewBox="0 0 70 70" fill="none" xmlns="http://www.w3.org/2000/svg">
<circle cx="35" cy="35" r="34.25" stroke="#C5C5C5" stroke-width="1.5"/>
<path d="M21.825 48.425L26.905 46.73L27.82 47.175C29.9375 48.2025 32.3575 48.75 35 48.75C43.74 48.75 50 42.505 50 35C50 27.4675 43.785 21.25 35 21.25C26.215 21.25 20 27.4675 20 35C20.0148 37.8826 20.9639 40.6826 22.705 42.98L23.55 44.105L21.825 48.4225V48.425ZM20.0575 51.65C19.8313 51.7258 19.5881 51.7353 19.3566 51.6773C19.1252 51.6193 18.9152 51.4963 18.7514 51.3228C18.5876 51.1493 18.4769 50.9325 18.4324 50.6981C18.3878 50.4637 18.4113 50.2215 18.5 50L20.7075 44.4825C18.6405 41.752 17.515 38.4246 17.5 35C17.5 26.715 24.205 18.75 35 18.75C45.795 18.75 52.5 26.715 52.5 35C52.5 43.285 45.725 51.25 35 51.25C31.8875 51.25 29.1075 50.58 26.73 49.425L20.055 51.65H20.0575Z" fill="#343434"/>
<g clip-path="url(#clip0_66_1974)">
<rect x="37" y="34" width="18" height="18" rx="9" fill="white"/>
<path d="M44.6823 46.2355L41.5 43.0525L42.5605 41.992L44.6823 44.113L48.9243 39.8702L49.9855 40.9315L44.6823 46.2355Z" fill="black"/>
<path fill-rule="evenodd" clip-rule="evenodd" d="M37.75 43C37.75 38.4438 41.4438 34.75 46 34.75C50.5562 34.75 54.25 38.4438 54.25 43C54.25 47.5562 50.5562 51.25 46 51.25C41.4438 51.25 37.75 47.5562 37.75 43ZM46 49.75C45.1136 49.75 44.2358 49.5754 43.4169 49.2362C42.5979 48.897 41.8538 48.3998 41.227 47.773C40.6002 47.1462 40.103 46.4021 39.7638 45.5831C39.4246 44.7642 39.25 43.8864 39.25 43C39.25 42.1136 39.4246 41.2358 39.7638 40.4169C40.103 39.5979 40.6002 38.8538 41.227 38.227C41.8538 37.6002 42.5979 37.103 43.4169 36.7638C44.2358 36.4246 45.1136 36.25 46 36.25C47.7902 36.25 49.5071 36.9612 50.773 38.227C52.0388 39.4929 52.75 41.2098 52.75 43C52.75 44.7902 52.0388 46.5071 50.773 47.773C49.5071 49.0388 47.7902 49.75 46 49.75Z" fill="black"/>
</g>
<defs>
<clipPath id="clip0_66_1974">
<rect x="37" y="34" width="18" height="18" rx="9" fill="white"/>
</clipPath>
</defs>
</svg>
