<svg width="500" height="500" viewBox="0 0 500 500" fill="none" xmlns="http://www.w3.org/2000/svg">
<path fill-rule="evenodd" clip-rule="evenodd" d="M150.724 453.839C148.92 453.714 147.116 453.616 145.322 453.455C135.233 452.509 125.974 449.214 117.759 443.277C103.59 433.009 94.5272 419.357 90.9201 402.187C89.6099 395.764 89.1684 389.193 89.6076 382.652C90.0953 374.986 91.5903 367.418 94.054 360.143C97.9736 348.464 103.875 337.866 111.349 328.098C116.976 320.773 123.346 314.05 130.358 308.036C136.892 302.353 142.956 296.151 148.491 289.491C155.527 281.143 161.884 272.295 168.179 263.384C173.733 255.509 179.197 247.58 185.09 239.973C189.47 234.191 194.259 228.731 199.42 223.634C205.938 217.321 213.134 211.982 221.616 208.509C227.925 205.923 234.657 204.524 241.474 204.384C249.223 204.193 256.963 205.013 264.5 206.821C275.88 209.599 286.317 215.352 294.742 223.491C300.652 229.116 305.652 235.491 310.295 242.152C315.233 249.223 319.759 256.554 324.429 263.795C329.697 271.946 335.143 279.973 341.215 287.563C347.255 295.117 353.954 302.121 361.233 308.491C370.049 316.15 377.879 324.875 384.545 334.464C390.262 342.666 394.823 351.616 398.099 361.063C400.651 368.424 402.165 376.105 402.599 383.884C403.224 395.777 401.17 407.152 395.768 417.848C390.768 427.759 383.536 435.732 374.465 442.045C367.786 446.696 360.581 450.232 352.652 452.196C349.845 452.906 346.989 453.404 344.108 453.688C343.709 453.729 343.316 453.789 342.929 453.866C342.554 454.071 342.143 453.911 341.742 453.955C341.411 454.009 341.072 453.866 340.759 454.063H333.367C333.072 453.857 332.741 454 332.429 453.964H330.866C324.563 453.759 318.447 452.446 312.34 451.027C302.009 448.616 291.875 445.446 281.59 442.83C273.287 440.653 264.844 439.048 256.322 438.027C250.415 437.401 244.47 437.216 238.536 437.473C233.804 437.634 229.09 438.366 224.429 439.232C215.233 440.964 206.224 443.429 197.206 445.893C187.67 448.518 178.134 451.116 168.366 452.714C164.393 453.357 160.42 453.911 156.375 453.875C155.545 453.857 154.724 453.982 153.884 453.964C152.813 453.902 151.768 454.089 150.715 453.848M332.947 44.8304C346.233 46.4286 356.393 53.1875 364.152 63.8393C369.465 71.1429 372.813 79.3393 374.884 88.0982C376.622 95.6171 377.358 103.333 377.072 111.045C376.635 125.128 373.227 138.96 367.072 151.634C362.892 160.497 357.193 168.559 350.233 175.455C343.956 181.598 336.858 186.509 328.572 189.571C322.75 191.714 316.768 192.786 310.572 192.411C299.84 191.795 290.724 187.527 283.072 180.08C276.536 173.723 272.09 166.027 269.009 157.518C266.895 151.582 265.487 145.417 264.813 139.152C264.323 134.867 264.144 130.552 264.277 126.241C264.599 116.074 266.414 106.187 269.724 96.5804C273.13 86.3951 278.295 76.8854 284.983 68.4821C290.697 61.3929 297.366 55.3929 305.367 50.9643C311.18 47.6843 317.592 45.6017 324.224 44.8393C324.429 44.7232 324.652 44.7768 324.858 44.7589H325.492C325.804 44.7232 326.125 44.8661 326.402 44.6518H330.759C331.036 44.875 331.358 44.7232 331.661 44.7589H332.304C332.509 44.7589 332.733 44.7143 332.947 44.8304ZM27.1879 201.786C27.3933 197.732 28.1254 193.75 29.1879 189.83C31.2593 182.214 34.6343 175.277 39.9022 169.339C45.5649 162.791 53.2616 158.333 61.7593 156.679C68.8308 155.286 75.8129 155.875 82.6701 158C90.5629 160.429 97.5361 164.571 103.741 169.964C113.366 178.312 120.277 188.589 125.054 200.339C127.554 206.5 129.283 212.869 130.241 219.446C130.706 222.634 130.929 225.839 131 229.071C131.152 235.156 130.473 241.233 128.983 247.134C126.956 255.036 123.545 262.223 118.116 268.384C112.134 275.346 103.865 279.945 94.7951 281.357C87.9558 282.464 81.2326 281.714 74.6611 279.589C65.8219 276.723 58.2326 271.795 51.554 265.411C45.1223 259.218 39.8064 251.963 35.8397 243.964C31.8761 236.144 29.176 227.745 27.8397 219.08L27.2147 214.455C27.054 213.75 27.1254 213.027 26.9468 212.33C26.8665 212.036 26.9111 211.759 26.9022 211.455C26.8486 211.089 27.0183 210.688 26.7861 210.321V204.661C27.1433 204.143 26.9647 203.571 27.0004 203.018C27.0361 202.607 26.929 202.161 27.1879 201.786ZM120.518 111.098C120.563 99.8661 122.161 89.75 125.92 80C128.75 72.6339 132.643 65.9018 138.063 60.1071C143.893 53.8393 150.822 49.3571 159.179 47.2411C167.536 45.125 175.75 45.7232 183.822 48.6429C190.938 51.2321 197.143 55.2946 202.661 60.4286C211.456 68.6071 217.75 78.4911 222.242 89.5714C225.093 96.6131 227.072 103.89 228.179 111.402C228.816 115.658 229.179 119.943 229.268 124.259C229.382 129.69 228.999 135.12 228.125 140.482C226.259 151.696 222.456 162.143 215.67 171.375C211.559 177.111 206.217 181.855 200.036 185.259C193.163 189.031 185.331 190.696 177.518 190.045C170.322 189.5 163.679 187.143 157.491 183.473C149.42 178.696 142.884 172.25 137.438 164.661C131.084 155.692 126.441 145.628 123.741 134.973C122.206 129.125 121.213 123.147 120.777 117.116C120.578 115.117 120.492 113.107 120.518 111.098ZM473.197 208.375V209.679C472.706 220.509 469.804 230.696 465.134 240.411C461.491 247.999 456.703 254.982 450.938 261.116C443.483 269.018 434.831 275.188 424.536 278.884C418.44 281.142 411.95 282.145 405.456 281.83C396.029 281.425 387.063 277.641 380.197 271.17C374.322 265.705 370.456 258.991 368.009 251.437C365.848 244.699 364.881 237.634 365.152 230.563C365.634 214.92 370.572 200.705 379.143 187.696C382.027 183.302 385.354 179.215 389.072 175.5C396.724 167.875 405.474 162.018 415.84 158.688C421.664 156.773 427.804 156.009 433.92 156.438C443.116 157.048 451.804 160.872 458.465 167.241C464.679 173.107 468.608 180.348 470.974 188.491C472.286 192.982 473.054 197.58 473.206 202.268V203.58C473.158 205.178 473.149 206.777 473.197 208.375Z" fill="#6E6E6E"/>
</svg>
