<svg width="500" height="500" viewBox="0 0 500 500" fill="none" xmlns="http://www.w3.org/2000/svg">
<path fill-rule="evenodd" clip-rule="evenodd" d="M166.667 83.3332H333.333V41.6665H375V83.3332H395.833C406.884 83.3332 417.482 87.723 425.296 95.5371C433.11 103.351 437.5 113.949 437.5 125V416.667C437.5 427.717 433.11 438.315 425.296 446.129C417.482 453.943 406.884 458.333 395.833 458.333H104.167C93.116 458.333 82.5179 453.943 74.7039 446.129C66.8899 438.315 62.5 427.717 62.5 416.667V125C62.5 113.949 66.8899 103.351 74.7039 95.5371C82.5179 87.723 93.116 83.3332 104.167 83.3332H125V41.6665H166.667V83.3332ZM104.167 166.667V416.667H395.833V166.667H104.167ZM145.833 229.167H187.5V270.833H145.833V229.167ZM229.167 229.167H270.833V270.833H229.167V229.167ZM312.5 229.167H354.167V270.833H312.5V229.167ZM312.5 312.5H354.167V354.167H312.5V312.5ZM229.167 312.5H270.833V354.167H229.167V312.5ZM145.833 312.5H187.5V354.167H145.833V312.5Z" fill="#6E6E6E"/>
</svg>
