<svg width="70" height="22" viewBox="0 0 70 22" fill="none" xmlns="http://www.w3.org/2000/svg">
<g clip-path="url(#clip0_66_1825)">
<path d="M3.31333 13.475L9.73 21.28L11.62 19.8333L6.18333 13.3467L10.885 7.49L8.97167 6.125L3.31333 13.475ZM2.43833 0L0 0.525V20.9067H2.43833V0Z" fill="#1A0000"/>
<path d="M13.7783 17.0333C13.7783 15.575 14.2683 14.4667 15.2483 13.6967C16.2283 12.9267 17.6633 12.5533 19.53 12.5533H22.3417V11.6317C22.3417 9.40333 21.35 8.28333 19.3667 8.28333C18.7367 8.28333 18.06 8.37667 17.36 8.55167C16.66 8.72667 16.0183 8.94833 15.435 9.205L14.7233 7.49C15.4467 7.08167 16.2283 6.77833 17.0683 6.55667C17.9083 6.335 18.725 6.23 19.5183 6.23C22.9483 6.23 24.6633 8.05 24.6633 11.69V20.9183H22.855L22.5633 19.3317C21.84 19.915 21.07 20.3583 20.2417 20.6733C19.425 20.9883 18.6317 21.1517 17.8967 21.1517C16.6017 21.1517 15.5983 20.79 14.8633 20.055C14.1517 19.32 13.7783 18.3167 13.7783 17.0333ZM18.3633 19.1917C18.7017 19.1917 19.04 19.145 19.4017 19.0633C19.7633 18.9817 20.125 18.865 20.4867 18.725C20.8483 18.585 21.1867 18.41 21.5017 18.2117C21.8167 18.0133 22.0967 17.7917 22.3533 17.57V14.1983H19.8217C18.5383 14.1983 17.605 14.42 17.01 14.8633C16.4267 15.3067 16.1233 15.995 16.1233 16.9517C16.1117 18.445 16.8583 19.1917 18.3633 19.1917ZM31.465 20.9067H29.0267V0.525L31.465 0V20.9067ZM37.9867 6.11333L39.9 7.47833L35.21 13.335L40.6467 19.8217L38.7683 21.2683L32.3517 13.4633L37.9867 6.11333ZM42.805 17.0333C42.805 15.575 43.295 14.4667 44.275 13.6967C45.255 12.9267 46.69 12.5533 48.5567 12.5533H51.3683V11.6317C51.3683 9.40333 50.3767 8.28333 48.3933 8.28333C47.7517 8.28333 47.0867 8.37667 46.3867 8.55167C45.6867 8.72667 45.045 8.94833 44.4617 9.205L43.75 7.49C44.4733 7.08167 45.255 6.77833 46.095 6.55667C46.935 6.335 47.7517 6.23 48.545 6.23C51.975 6.23 53.69 8.05 53.69 11.69V20.9183H51.8817L51.59 19.3317C50.8667 19.915 50.0967 20.3583 49.2683 20.6733C48.4517 20.9883 47.6583 21.1517 46.9233 21.1517C45.6283 21.1517 44.625 20.79 43.89 20.055C43.1667 19.32 42.805 18.3167 42.805 17.0333ZM47.39 19.1917C47.7283 19.1917 48.0667 19.145 48.4283 19.0633C48.79 18.9817 49.1517 18.865 49.5133 18.725C49.875 18.585 50.2133 18.41 50.5283 18.2117C50.8433 18.0133 51.1233 17.7917 51.3683 17.57V14.1983H48.8367C47.5533 14.1983 46.6083 14.42 46.025 14.8633C45.43 15.3067 45.1383 15.995 45.1383 16.9517C45.1383 18.445 45.885 19.1917 47.39 19.1917ZM63.525 6.25333C65.5433 6.25333 67.13 6.90667 68.2733 8.20167C69.4283 9.50833 70 11.3633 70 13.79C70 16.1817 69.4283 18.0133 68.285 19.2967C67.1417 20.58 65.555 21.2217 63.525 21.2217C61.5067 21.2217 59.92 20.58 58.7767 19.2967C57.6217 18.0133 57.05 16.1817 57.05 13.79C57.05 11.3633 57.6333 9.49667 58.7883 8.20167C59.9433 6.90667 61.53 6.25333 63.525 6.25333ZM63.525 8.20167C62.2533 8.20167 61.2733 8.68 60.5967 9.625C59.92 10.57 59.57 11.9583 59.57 13.79C59.57 15.5983 59.9083 16.9633 60.5967 17.885C61.2733 18.8067 62.2533 19.2733 63.525 19.2733C64.82 19.2733 65.8 18.8067 66.4883 17.885C67.165 16.9633 67.5033 15.5983 67.5033 13.79C67.5033 11.9583 67.165 10.57 66.4883 9.625C65.8 8.68 64.82 8.20167 63.525 8.20167Z" fill="#1A0000"/>
</g>
<defs>
<clipPath id="clip0_66_1825">
<rect width="70" height="21.28" fill="white"/>
</clipPath>
</defs>
</svg>
